<?xml version="1.0" encoding="iso-8859-1"?>
<!-- Uploaded to: SVG Repo, www.svgrepo.com, Generator: SVG Repo Mixer Tools -->
<svg height="800px" width="800px" version="1.1" id="Layer_1" xmlns="http://www.w3.org/2000/svg" xmlns:xlink="http://www.w3.org/1999/xlink" 
	 viewBox="0 0 512 512" xml:space="preserve">
<circle style="fill:rgb(70, 187, 0);" cx="256" cy="256" r="256"/>
<path style="fill:#18191830;" d="M505.866,311.875l-197.43-198.204l-21.304,131.963l-28.134,131.491L368.083,486.21
	C437.127,452.532,488.76,388.711,505.866,311.875z"/>
<path style="fill:#E6F3FF;" d="M301.954,109.254c-7.406-3.067-15.936-1.372-21.606,4.298L151.897,242.019
	c-3.718,3.718-5.806,8.763-5.806,14.019c0,5.258,2.089,10.302,5.81,14.019l128.431,128.395c3.793,3.791,8.863,5.806,14.021,5.806
	c2.553,0,5.13-0.495,7.583-1.51c7.406-3.069,12.236-10.297,12.238-18.315l0.021-256.862
	C314.192,119.551,309.363,112.323,301.954,109.254z"/>
<path style="fill:#CFDBE6;" d="M146.135,255.138c-0.014,0.3-0.045,0.598-0.045,0.9c0,5.258,2.089,10.302,5.81,14.019
	l128.431,128.395c3.793,3.791,8.863,5.806,14.021,5.806c2.553,0,5.13-0.495,7.583-1.51c7.406-3.069,12.236-10.297,12.238-18.315
	l0.009-129.295H146.135z"/>
</svg>