<svg height="200px" width="200px" version="1.1" id="Layer_1"
    xmlns="http://www.w3.org/2000/svg"
    xmlns:xlink="http://www.w3.org/1999/xlink" viewBox="0 0 512 512" xml:space="preserve" fill="#000000">
    <g id="SVGRepo_bgCarrier" stroke-width="0"></g>
    <g id="SVGRepo_tracerCarrier" stroke-linecap="round" stroke-linejoin="round"></g>
    <g id="SVGRepo_iconCarrier">
        <circle style="fill:rgb(70, 187, 0);" cx="256" cy="256" r="256"></circle>
        <path style="fill:#18191830;" d="M330.214,501.06c74.404-22.502,134.489-77.953,163.292-149.385l-118.32-118.32l-73.869,85.683 l-71.827,81.298L330.214,501.06z"></path>
        <path style="fill:#E6F3FF;" d="M383.793,241.961L255.364,113.567c-5.67-5.67-14.198-7.363-21.604-4.296 c-7.406,3.069-12.236,10.297-12.238,18.315l-0.022,256.857c0,8.018,4.829,15.248,12.238,18.316c2.453,1.015,5.029,1.51,7.582,1.51 c5.16,0,10.231-2.015,14.024-5.808l128.452-128.465c3.718-3.718,5.806-8.763,5.806-14.019 C389.603,250.721,387.513,245.677,383.793,241.961z"></path>
        <path style="fill:#CFDBE6;" d="M221.512,255.138l-0.012,129.305c0,8.018,4.829,15.248,12.238,18.316 c2.453,1.015,5.029,1.51,7.582,1.51c5.16,0,10.231-2.015,14.024-5.808l128.452-128.465c3.718-3.718,5.806-8.763,5.806-14.019 c0-0.283-0.029-0.56-0.041-0.841H221.512V255.138z"></path>
    </g>
</svg>